<?xml version="1.0" encoding="UTF-8"?>
<svg xmlns="http://www.w3.org/2000/svg" id="Isolation_Mode" data-name="Isolation Mode" viewBox="0 0 24 24" width="512" height="512"><path d="M23.608,17.013l-2.8-10.1A9.443,9.443,0,0,0,2.486,7.4L.321,17.14a2.5,2.5,0,0,0,2.441,3.042H6.905a5.285,5.285,0,0,0,10.154,0H21.2a2.5,2.5,0,0,0,2.409-3.169Zm-20.223.169,2.03-9.137a6.443,6.443,0,0,1,12.5-.326l2.628,9.463Z"/></svg>









<svg viewBox="0 0 20 20" width="20" height="20" fill="currentColor" class="x19dipnz x1lliihq x1tzjh5l x1k90msu x2h7rmj x1qfuztq" style="--color: var(--always-white);"><g fill-rule="evenodd" transform="translate(-446 -350)"><g fill-rule="nonzero"><path d="M95 201.5h13a1 1 0 1 0 0-2H95a1 1 0 1 0 0 2z" transform="translate(354.5 159.5)"></path><path d="M102.5 207v-13a1 1 0 1 0-2 0v13a1 1 0 1 0 2 0z" transform="translate(354.5 159.5)"></path></g></g></svg>